<svg xmlns="http://www.w3.org/2000/svg" xmlns:xlink="http://www.w3.org/1999/xlink" width="102" height="1080" viewBox="0 0 102 1080"><defs><style>.a{fill:none;}.b{clip-path:url(#a);}.c{fill:#727272;}</style><clipPath id="a"><rect class="a" width="102" height="1080"/></clipPath></defs><g class="b"><g transform="translate(95.267 -1147.045)"><path class="c" d="M-88.572,1198.206h-3.111a3.138,3.138,0,0,1-3.138-3.138q-.909-21.6,0-44.885a3.137,3.137,0,0,1,3.138-3.138h3.111a3.137,3.137,0,0,1,3.138,3.138c.214,15.841.286,30.866,0,44.885A3.138,3.138,0,0,1-88.572,1198.206Z" transform="translate(0 0)"/><path class="c" d="M-79.4,1198.206h-3.111a3.138,3.138,0,0,1-3.138-3.138q-.912-21.6,0-44.885a3.137,3.137,0,0,1,3.138-3.138H-79.4a3.137,3.137,0,0,1,3.138,3.138c.212,15.841.286,30.866,0,44.885A3.138,3.138,0,0,1-79.4,1198.206Z" transform="translate(6.143 0)"/><path class="c" d="M-69.825,1198.206h-3.113a3.139,3.139,0,0,1-3.138-3.138q-.909-21.6,0-44.885a3.139,3.139,0,0,1,3.138-3.138h3.113a3.137,3.137,0,0,1,3.136,3.138c.214,15.841.286,30.866,0,44.885A3.138,3.138,0,0,1-69.825,1198.206Z" transform="translate(12.56 0)"/><path class="c" d="M-66.907,1153.876v-3.111a3.139,3.139,0,0,1,3.138-3.138c14.4-.19,1.961-.168,17.464,0a3.137,3.137,0,0,1,3.136,3.138v3.111a3.137,3.137,0,0,1-3.136,3.138c-15.547-.008-3.255.1-17.464,0A3.138,3.138,0,0,1-66.907,1153.876Z" transform="translate(19.003 0.3)"/><path class="c" d="M-50,1153.876v-3.111a3.139,3.139,0,0,1,3.138-3.138c14.4-.19,1.961-.168,17.464,0a3.137,3.137,0,0,1,3.136,3.138v3.111a3.137,3.137,0,0,1-3.136,3.138c-15.547-.008-3.255.1-17.464,0A3.138,3.138,0,0,1-50,1153.876Z" transform="translate(30.334 0.3)"/><path class="c" d="M-66.907,1173.5v-3.111a3.139,3.139,0,0,1,3.138-3.138c14.4-.19,1.961-.169,17.464,0a3.137,3.137,0,0,1,3.136,3.138v3.111a3.137,3.137,0,0,1-3.136,3.138c-15.547-.006-3.255.1-17.464,0A3.138,3.138,0,0,1-66.907,1173.5Z" transform="translate(19.003 13.447)"/><path class="c" d="M-50,1173.5v-3.111a3.139,3.139,0,0,1,3.138-3.138c14.4-.19,1.961-.169,17.464,0a3.137,3.137,0,0,1,3.136,3.138v3.111a3.137,3.137,0,0,1-3.136,3.138c-15.547-.006-3.255.1-17.464,0A3.138,3.138,0,0,1-50,1173.5Z" transform="translate(30.334 13.447)"/><path class="c" d="M-38.683,1176.251h3.113a3.138,3.138,0,0,1,3.138,3.136c.19,14.4.167,1.961,0,17.464a3.14,3.14,0,0,1-3.138,3.138h-3.113a3.14,3.14,0,0,1-3.138-3.138c.008-15.547-.1-3.253,0-17.464A3.138,3.138,0,0,1-38.683,1176.251Z" transform="translate(35.783 19.57)"/><path class="c" d="M-38.683,1193.161h3.113a3.138,3.138,0,0,1,3.138,3.136c.19,14.4.167,1.961,0,17.464a3.138,3.138,0,0,1-3.138,3.136h-3.113a3.138,3.138,0,0,1-3.138-3.136c.008-15.547-.1-3.255,0-17.464A3.138,3.138,0,0,1-38.683,1193.161Z" transform="translate(35.783 30.901)"/><path class="c" d="M-48.492,1176.251h3.111a3.137,3.137,0,0,1,3.138,3.136c.19,14.4.167,1.961,0,17.464a3.138,3.138,0,0,1-3.138,3.138h-3.111a3.138,3.138,0,0,1-3.138-3.138c.007-15.547-.1-3.253,0-17.464A3.137,3.137,0,0,1-48.492,1176.251Z" transform="translate(29.21 19.57)"/><path class="c" d="M-48.492,1193.161h3.111a3.137,3.137,0,0,1,3.138,3.136c.19,14.4.167,1.961,0,17.464a3.137,3.137,0,0,1-3.138,3.136h-3.111a3.137,3.137,0,0,1-3.138-3.136c.007-15.547-.1-3.255,0-17.464A3.137,3.137,0,0,1-48.492,1193.161Z" transform="translate(29.21 30.901)"/><path class="c" d="M-58.3,1176.251h3.113a3.137,3.137,0,0,1,3.136,3.136c.19,14.4.169,1.961,0,17.464a3.138,3.138,0,0,1-3.136,3.138H-58.3a3.138,3.138,0,0,1-3.138-3.138c.008-15.547-.1-3.253,0-17.464A3.137,3.137,0,0,1-58.3,1176.251Z" transform="translate(22.636 19.57)"/><path class="c" d="M-58.3,1193.161h3.113a3.137,3.137,0,0,1,3.136,3.136c.19,14.4.169,1.961,0,17.464a3.137,3.137,0,0,1-3.136,3.136H-58.3a3.137,3.137,0,0,1-3.138-3.136c.008-15.547-.1-3.255,0-17.464A3.137,3.137,0,0,1-58.3,1193.161Z" transform="translate(22.636 30.901)"/><path class="c" d="M-66.907,1164.4v-3.112a3.139,3.139,0,0,1,3.138-3.138q21.6-.909,44.885,0a3.137,3.137,0,0,1,3.138,3.138v3.112a3.137,3.137,0,0,1-3.138,3.138c-15.839.214-30.866.286-44.885,0A3.138,3.138,0,0,1-66.907,1164.4Z" transform="translate(19.003 7.142)"/><path class="c" d="M-95.267,1187.863v-3.111a3.137,3.137,0,0,1,3.138-3.138c14.4-.19,1.959-.167,17.462,0a3.137,3.137,0,0,1,3.138,3.138v3.111A3.138,3.138,0,0,1-74.667,1191c-15.547-.007-3.253.1-17.462,0A3.138,3.138,0,0,1-95.267,1187.863Z" transform="translate(0 23.073)"/><path class="c" d="M-78.357,1187.863v-3.111a3.137,3.137,0,0,1,3.138-3.138c14.4-.19,1.959-.167,17.462,0a3.137,3.137,0,0,1,3.138,3.138v3.111A3.138,3.138,0,0,1-57.757,1191c-15.547-.007-3.253.1-17.462,0A3.138,3.138,0,0,1-78.357,1187.863Z" transform="translate(11.331 23.073)"/><path class="c" d="M-95.267,1207.486v-3.113a3.138,3.138,0,0,1,3.138-3.138c14.4-.19,1.959-.167,17.462,0a3.138,3.138,0,0,1,3.138,3.138v3.113a3.139,3.139,0,0,1-3.138,3.138c-15.547-.008-3.253.1-17.462,0A3.139,3.139,0,0,1-95.267,1207.486Z" transform="translate(0 36.221)"/><path class="c" d="M-78.357,1207.486v-3.113a3.138,3.138,0,0,1,3.138-3.138c14.4-.19,1.959-.167,17.462,0a3.138,3.138,0,0,1,3.138,3.138v3.113a3.139,3.139,0,0,1-3.138,3.138c-15.547-.008-3.253.1-17.462,0A3.139,3.139,0,0,1-78.357,1207.486Z" transform="translate(11.331 36.221)"/><path class="c" d="M-95.267,1198.386v-3.111a3.137,3.137,0,0,1,3.138-3.138q21.6-.912,44.885,0a3.137,3.137,0,0,1,3.136,3.138v3.111a3.137,3.137,0,0,1-3.136,3.138c-15.841.214-30.866.285-44.885,0A3.138,3.138,0,0,1-95.267,1198.386Z" transform="translate(0 29.915)"/></g><g transform="translate(95.267 -1043.045)"><path class="c" d="M-88.572,1198.206h-3.111a3.138,3.138,0,0,1-3.138-3.138q-.909-21.6,0-44.885a3.137,3.137,0,0,1,3.138-3.138h3.111a3.137,3.137,0,0,1,3.138,3.138c.214,15.841.286,30.866,0,44.885A3.138,3.138,0,0,1-88.572,1198.206Z" transform="translate(0 0)"/><path class="c" d="M-79.4,1198.206h-3.111a3.138,3.138,0,0,1-3.138-3.138q-.912-21.6,0-44.885a3.137,3.137,0,0,1,3.138-3.138H-79.4a3.137,3.137,0,0,1,3.138,3.138c.212,15.841.286,30.866,0,44.885A3.138,3.138,0,0,1-79.4,1198.206Z" transform="translate(6.143 0)"/><path class="c" d="M-69.825,1198.206h-3.113a3.139,3.139,0,0,1-3.138-3.138q-.909-21.6,0-44.885a3.139,3.139,0,0,1,3.138-3.138h3.113a3.137,3.137,0,0,1,3.136,3.138c.214,15.841.286,30.866,0,44.885A3.138,3.138,0,0,1-69.825,1198.206Z" transform="translate(12.56 0)"/><path class="c" d="M-66.907,1153.876v-3.111a3.139,3.139,0,0,1,3.138-3.138c14.4-.19,1.961-.168,17.464,0a3.137,3.137,0,0,1,3.136,3.138v3.111a3.137,3.137,0,0,1-3.136,3.138c-15.547-.008-3.255.1-17.464,0A3.138,3.138,0,0,1-66.907,1153.876Z" transform="translate(19.003 0.3)"/><path class="c" d="M-50,1153.876v-3.111a3.139,3.139,0,0,1,3.138-3.138c14.4-.19,1.961-.168,17.464,0a3.137,3.137,0,0,1,3.136,3.138v3.111a3.137,3.137,0,0,1-3.136,3.138c-15.547-.008-3.255.1-17.464,0A3.138,3.138,0,0,1-50,1153.876Z" transform="translate(30.334 0.3)"/><path class="c" d="M-66.907,1173.5v-3.111a3.139,3.139,0,0,1,3.138-3.138c14.4-.19,1.961-.169,17.464,0a3.137,3.137,0,0,1,3.136,3.138v3.111a3.137,3.137,0,0,1-3.136,3.138c-15.547-.006-3.255.1-17.464,0A3.138,3.138,0,0,1-66.907,1173.5Z" transform="translate(19.003 13.447)"/><path class="c" d="M-50,1173.5v-3.111a3.139,3.139,0,0,1,3.138-3.138c14.4-.19,1.961-.169,17.464,0a3.137,3.137,0,0,1,3.136,3.138v3.111a3.137,3.137,0,0,1-3.136,3.138c-15.547-.006-3.255.1-17.464,0A3.138,3.138,0,0,1-50,1173.5Z" transform="translate(30.334 13.447)"/><path class="c" d="M-38.683,1176.251h3.113a3.138,3.138,0,0,1,3.138,3.136c.19,14.4.167,1.961,0,17.464a3.14,3.14,0,0,1-3.138,3.138h-3.113a3.14,3.14,0,0,1-3.138-3.138c.008-15.547-.1-3.253,0-17.464A3.138,3.138,0,0,1-38.683,1176.251Z" transform="translate(35.783 19.57)"/><path class="c" d="M-38.683,1193.161h3.113a3.138,3.138,0,0,1,3.138,3.136c.19,14.4.167,1.961,0,17.464a3.138,3.138,0,0,1-3.138,3.136h-3.113a3.138,3.138,0,0,1-3.138-3.136c.008-15.547-.1-3.255,0-17.464A3.138,3.138,0,0,1-38.683,1193.161Z" transform="translate(35.783 30.901)"/><path class="c" d="M-48.492,1176.251h3.111a3.137,3.137,0,0,1,3.138,3.136c.19,14.4.167,1.961,0,17.464a3.138,3.138,0,0,1-3.138,3.138h-3.111a3.138,3.138,0,0,1-3.138-3.138c.007-15.547-.1-3.253,0-17.464A3.137,3.137,0,0,1-48.492,1176.251Z" transform="translate(29.21 19.57)"/><path class="c" d="M-48.492,1193.161h3.111a3.137,3.137,0,0,1,3.138,3.136c.19,14.4.167,1.961,0,17.464a3.137,3.137,0,0,1-3.138,3.136h-3.111a3.137,3.137,0,0,1-3.138-3.136c.007-15.547-.1-3.255,0-17.464A3.137,3.137,0,0,1-48.492,1193.161Z" transform="translate(29.21 30.901)"/><path class="c" d="M-58.3,1176.251h3.113a3.137,3.137,0,0,1,3.136,3.136c.19,14.4.169,1.961,0,17.464a3.138,3.138,0,0,1-3.136,3.138H-58.3a3.138,3.138,0,0,1-3.138-3.138c.008-15.547-.1-3.253,0-17.464A3.137,3.137,0,0,1-58.3,1176.251Z" transform="translate(22.636 19.57)"/><path class="c" d="M-58.3,1193.161h3.113a3.137,3.137,0,0,1,3.136,3.136c.19,14.4.169,1.961,0,17.464a3.137,3.137,0,0,1-3.136,3.136H-58.3a3.137,3.137,0,0,1-3.138-3.136c.008-15.547-.1-3.255,0-17.464A3.137,3.137,0,0,1-58.3,1193.161Z" transform="translate(22.636 30.901)"/><path class="c" d="M-66.907,1164.4v-3.112a3.139,3.139,0,0,1,3.138-3.138q21.6-.909,44.885,0a3.137,3.137,0,0,1,3.138,3.138v3.112a3.137,3.137,0,0,1-3.138,3.138c-15.839.214-30.866.286-44.885,0A3.138,3.138,0,0,1-66.907,1164.4Z" transform="translate(19.003 7.142)"/><path class="c" d="M-95.267,1187.863v-3.111a3.137,3.137,0,0,1,3.138-3.138c14.4-.19,1.959-.167,17.462,0a3.137,3.137,0,0,1,3.138,3.138v3.111A3.138,3.138,0,0,1-74.667,1191c-15.547-.007-3.253.1-17.462,0A3.138,3.138,0,0,1-95.267,1187.863Z" transform="translate(0 23.073)"/><path class="c" d="M-78.357,1187.863v-3.111a3.137,3.137,0,0,1,3.138-3.138c14.4-.19,1.959-.167,17.462,0a3.137,3.137,0,0,1,3.138,3.138v3.111A3.138,3.138,0,0,1-57.757,1191c-15.547-.007-3.253.1-17.462,0A3.138,3.138,0,0,1-78.357,1187.863Z" transform="translate(11.331 23.073)"/><path class="c" d="M-95.267,1207.486v-3.113a3.138,3.138,0,0,1,3.138-3.138c14.4-.19,1.959-.167,17.462,0a3.138,3.138,0,0,1,3.138,3.138v3.113a3.139,3.139,0,0,1-3.138,3.138c-15.547-.008-3.253.1-17.462,0A3.139,3.139,0,0,1-95.267,1207.486Z" transform="translate(0 36.221)"/><path class="c" d="M-78.357,1207.486v-3.113a3.138,3.138,0,0,1,3.138-3.138c14.4-.19,1.959-.167,17.462,0a3.138,3.138,0,0,1,3.138,3.138v3.113a3.139,3.139,0,0,1-3.138,3.138c-15.547-.008-3.253.1-17.462,0A3.139,3.139,0,0,1-78.357,1207.486Z" transform="translate(11.331 36.221)"/><path class="c" d="M-95.267,1198.386v-3.111a3.137,3.137,0,0,1,3.138-3.138q21.6-.912,44.885,0a3.137,3.137,0,0,1,3.136,3.138v3.111a3.137,3.137,0,0,1-3.136,3.138c-15.841.214-30.866.285-44.885,0A3.138,3.138,0,0,1-95.267,1198.386Z" transform="translate(0 29.915)"/></g><g transform="translate(95.267 -939.045)"><path class="c" d="M-88.572,1198.206h-3.111a3.138,3.138,0,0,1-3.138-3.138q-.909-21.6,0-44.885a3.137,3.137,0,0,1,3.138-3.138h3.111a3.137,3.137,0,0,1,3.138,3.138c.214,15.841.286,30.866,0,44.885A3.138,3.138,0,0,1-88.572,1198.206Z" transform="translate(0 0)"/><path class="c" d="M-79.4,1198.206h-3.111a3.138,3.138,0,0,1-3.138-3.138q-.912-21.6,0-44.885a3.137,3.137,0,0,1,3.138-3.138H-79.4a3.137,3.137,0,0,1,3.138,3.138c.212,15.841.286,30.866,0,44.885A3.138,3.138,0,0,1-79.4,1198.206Z" transform="translate(6.143 0)"/><path class="c" d="M-69.825,1198.206h-3.113a3.139,3.139,0,0,1-3.138-3.138q-.909-21.6,0-44.885a3.139,3.139,0,0,1,3.138-3.138h3.113a3.137,3.137,0,0,1,3.136,3.138c.214,15.841.286,30.866,0,44.885A3.138,3.138,0,0,1-69.825,1198.206Z" transform="translate(12.56 0)"/><path class="c" d="M-66.907,1153.876v-3.111a3.139,3.139,0,0,1,3.138-3.138c14.4-.19,1.961-.168,17.464,0a3.137,3.137,0,0,1,3.136,3.138v3.111a3.137,3.137,0,0,1-3.136,3.138c-15.547-.008-3.255.1-17.464,0A3.138,3.138,0,0,1-66.907,1153.876Z" transform="translate(19.003 0.3)"/><path class="c" d="M-50,1153.876v-3.111a3.139,3.139,0,0,1,3.138-3.138c14.4-.19,1.961-.168,17.464,0a3.137,3.137,0,0,1,3.136,3.138v3.111a3.137,3.137,0,0,1-3.136,3.138c-15.547-.008-3.255.1-17.464,0A3.138,3.138,0,0,1-50,1153.876Z" transform="translate(30.334 0.3)"/><path class="c" d="M-66.907,1173.5v-3.111a3.139,3.139,0,0,1,3.138-3.138c14.4-.19,1.961-.169,17.464,0a3.137,3.137,0,0,1,3.136,3.138v3.111a3.137,3.137,0,0,1-3.136,3.138c-15.547-.006-3.255.1-17.464,0A3.138,3.138,0,0,1-66.907,1173.5Z" transform="translate(19.003 13.447)"/><path class="c" d="M-50,1173.5v-3.111a3.139,3.139,0,0,1,3.138-3.138c14.4-.19,1.961-.169,17.464,0a3.137,3.137,0,0,1,3.136,3.138v3.111a3.137,3.137,0,0,1-3.136,3.138c-15.547-.006-3.255.1-17.464,0A3.138,3.138,0,0,1-50,1173.5Z" transform="translate(30.334 13.447)"/><path class="c" d="M-38.683,1176.251h3.113a3.138,3.138,0,0,1,3.138,3.136c.19,14.4.167,1.961,0,17.464a3.14,3.14,0,0,1-3.138,3.138h-3.113a3.14,3.14,0,0,1-3.138-3.138c.008-15.547-.1-3.253,0-17.464A3.138,3.138,0,0,1-38.683,1176.251Z" transform="translate(35.783 19.57)"/><path class="c" d="M-38.683,1193.161h3.113a3.138,3.138,0,0,1,3.138,3.136c.19,14.4.167,1.961,0,17.464a3.138,3.138,0,0,1-3.138,3.136h-3.113a3.138,3.138,0,0,1-3.138-3.136c.008-15.547-.1-3.255,0-17.464A3.138,3.138,0,0,1-38.683,1193.161Z" transform="translate(35.783 30.901)"/><path class="c" d="M-48.492,1176.251h3.111a3.137,3.137,0,0,1,3.138,3.136c.19,14.4.167,1.961,0,17.464a3.138,3.138,0,0,1-3.138,3.138h-3.111a3.138,3.138,0,0,1-3.138-3.138c.007-15.547-.1-3.253,0-17.464A3.137,3.137,0,0,1-48.492,1176.251Z" transform="translate(29.21 19.57)"/><path class="c" d="M-48.492,1193.161h3.111a3.137,3.137,0,0,1,3.138,3.136c.19,14.4.167,1.961,0,17.464a3.137,3.137,0,0,1-3.138,3.136h-3.111a3.137,3.137,0,0,1-3.138-3.136c.007-15.547-.1-3.255,0-17.464A3.137,3.137,0,0,1-48.492,1193.161Z" transform="translate(29.21 30.901)"/><path class="c" d="M-58.3,1176.251h3.113a3.137,3.137,0,0,1,3.136,3.136c.19,14.4.169,1.961,0,17.464a3.138,3.138,0,0,1-3.136,3.138H-58.3a3.138,3.138,0,0,1-3.138-3.138c.008-15.547-.1-3.253,0-17.464A3.137,3.137,0,0,1-58.3,1176.251Z" transform="translate(22.636 19.57)"/><path class="c" d="M-58.3,1193.161h3.113a3.137,3.137,0,0,1,3.136,3.136c.19,14.4.169,1.961,0,17.464a3.137,3.137,0,0,1-3.136,3.136H-58.3a3.137,3.137,0,0,1-3.138-3.136c.008-15.547-.1-3.255,0-17.464A3.137,3.137,0,0,1-58.3,1193.161Z" transform="translate(22.636 30.901)"/><path class="c" d="M-66.907,1164.4v-3.112a3.139,3.139,0,0,1,3.138-3.138q21.6-.909,44.885,0a3.137,3.137,0,0,1,3.138,3.138v3.112a3.137,3.137,0,0,1-3.138,3.138c-15.839.214-30.866.286-44.885,0A3.138,3.138,0,0,1-66.907,1164.4Z" transform="translate(19.003 7.142)"/><path class="c" d="M-95.267,1187.863v-3.111a3.137,3.137,0,0,1,3.138-3.138c14.4-.19,1.959-.167,17.462,0a3.137,3.137,0,0,1,3.138,3.138v3.111A3.138,3.138,0,0,1-74.667,1191c-15.547-.007-3.253.1-17.462,0A3.138,3.138,0,0,1-95.267,1187.863Z" transform="translate(0 23.073)"/><path class="c" d="M-78.357,1187.863v-3.111a3.137,3.137,0,0,1,3.138-3.138c14.4-.19,1.959-.167,17.462,0a3.137,3.137,0,0,1,3.138,3.138v3.111A3.138,3.138,0,0,1-57.757,1191c-15.547-.007-3.253.1-17.462,0A3.138,3.138,0,0,1-78.357,1187.863Z" transform="translate(11.331 23.073)"/><path class="c" d="M-95.267,1207.486v-3.113a3.138,3.138,0,0,1,3.138-3.138c14.4-.19,1.959-.167,17.462,0a3.138,3.138,0,0,1,3.138,3.138v3.113a3.139,3.139,0,0,1-3.138,3.138c-15.547-.008-3.253.1-17.462,0A3.139,3.139,0,0,1-95.267,1207.486Z" transform="translate(0 36.221)"/><path class="c" d="M-78.357,1207.486v-3.113a3.138,3.138,0,0,1,3.138-3.138c14.4-.19,1.959-.167,17.462,0a3.138,3.138,0,0,1,3.138,3.138v3.113a3.139,3.139,0,0,1-3.138,3.138c-15.547-.008-3.253.1-17.462,0A3.139,3.139,0,0,1-78.357,1207.486Z" transform="translate(11.331 36.221)"/><path class="c" d="M-95.267,1198.386v-3.111a3.137,3.137,0,0,1,3.138-3.138q21.6-.912,44.885,0a3.137,3.137,0,0,1,3.136,3.138v3.111a3.137,3.137,0,0,1-3.136,3.138c-15.841.214-30.866.285-44.885,0A3.138,3.138,0,0,1-95.267,1198.386Z" transform="translate(0 29.915)"/></g><g transform="translate(95.267 -835.045)"><path class="c" d="M-88.572,1198.206h-3.111a3.138,3.138,0,0,1-3.138-3.138q-.909-21.6,0-44.885a3.137,3.137,0,0,1,3.138-3.138h3.111a3.137,3.137,0,0,1,3.138,3.138c.214,15.841.286,30.866,0,44.885A3.138,3.138,0,0,1-88.572,1198.206Z" transform="translate(0 0)"/><path class="c" d="M-79.4,1198.206h-3.111a3.138,3.138,0,0,1-3.138-3.138q-.912-21.6,0-44.885a3.137,3.137,0,0,1,3.138-3.138H-79.4a3.137,3.137,0,0,1,3.138,3.138c.212,15.841.286,30.866,0,44.885A3.138,3.138,0,0,1-79.4,1198.206Z" transform="translate(6.143 0)"/><path class="c" d="M-69.825,1198.206h-3.113a3.139,3.139,0,0,1-3.138-3.138q-.909-21.6,0-44.885a3.139,3.139,0,0,1,3.138-3.138h3.113a3.137,3.137,0,0,1,3.136,3.138c.214,15.841.286,30.866,0,44.885A3.138,3.138,0,0,1-69.825,1198.206Z" transform="translate(12.56 0)"/><path class="c" d="M-66.907,1153.876v-3.111a3.139,3.139,0,0,1,3.138-3.138c14.4-.19,1.961-.168,17.464,0a3.137,3.137,0,0,1,3.136,3.138v3.111a3.137,3.137,0,0,1-3.136,3.138c-15.547-.008-3.255.1-17.464,0A3.138,3.138,0,0,1-66.907,1153.876Z" transform="translate(19.003 0.3)"/><path class="c" d="M-50,1153.876v-3.111a3.139,3.139,0,0,1,3.138-3.138c14.4-.19,1.961-.168,17.464,0a3.137,3.137,0,0,1,3.136,3.138v3.111a3.137,3.137,0,0,1-3.136,3.138c-15.547-.008-3.255.1-17.464,0A3.138,3.138,0,0,1-50,1153.876Z" transform="translate(30.334 0.3)"/><path class="c" d="M-66.907,1173.5v-3.111a3.139,3.139,0,0,1,3.138-3.138c14.4-.19,1.961-.169,17.464,0a3.137,3.137,0,0,1,3.136,3.138v3.111a3.137,3.137,0,0,1-3.136,3.138c-15.547-.006-3.255.1-17.464,0A3.138,3.138,0,0,1-66.907,1173.5Z" transform="translate(19.003 13.447)"/><path class="c" d="M-50,1173.5v-3.111a3.139,3.139,0,0,1,3.138-3.138c14.4-.19,1.961-.169,17.464,0a3.137,3.137,0,0,1,3.136,3.138v3.111a3.137,3.137,0,0,1-3.136,3.138c-15.547-.006-3.255.1-17.464,0A3.138,3.138,0,0,1-50,1173.5Z" transform="translate(30.334 13.447)"/><path class="c" d="M-38.683,1176.251h3.113a3.138,3.138,0,0,1,3.138,3.136c.19,14.4.167,1.961,0,17.464a3.14,3.14,0,0,1-3.138,3.138h-3.113a3.14,3.14,0,0,1-3.138-3.138c.008-15.547-.1-3.253,0-17.464A3.138,3.138,0,0,1-38.683,1176.251Z" transform="translate(35.783 19.57)"/><path class="c" d="M-38.683,1193.161h3.113a3.138,3.138,0,0,1,3.138,3.136c.19,14.4.167,1.961,0,17.464a3.138,3.138,0,0,1-3.138,3.136h-3.113a3.138,3.138,0,0,1-3.138-3.136c.008-15.547-.1-3.255,0-17.464A3.138,3.138,0,0,1-38.683,1193.161Z" transform="translate(35.783 30.901)"/><path class="c" d="M-48.492,1176.251h3.111a3.137,3.137,0,0,1,3.138,3.136c.19,14.4.167,1.961,0,17.464a3.138,3.138,0,0,1-3.138,3.138h-3.111a3.138,3.138,0,0,1-3.138-3.138c.007-15.547-.1-3.253,0-17.464A3.137,3.137,0,0,1-48.492,1176.251Z" transform="translate(29.21 19.57)"/><path class="c" d="M-48.492,1193.161h3.111a3.137,3.137,0,0,1,3.138,3.136c.19,14.4.167,1.961,0,17.464a3.137,3.137,0,0,1-3.138,3.136h-3.111a3.137,3.137,0,0,1-3.138-3.136c.007-15.547-.1-3.255,0-17.464A3.137,3.137,0,0,1-48.492,1193.161Z" transform="translate(29.21 30.901)"/><path class="c" d="M-58.3,1176.251h3.113a3.137,3.137,0,0,1,3.136,3.136c.19,14.4.169,1.961,0,17.464a3.138,3.138,0,0,1-3.136,3.138H-58.3a3.138,3.138,0,0,1-3.138-3.138c.008-15.547-.1-3.253,0-17.464A3.137,3.137,0,0,1-58.3,1176.251Z" transform="translate(22.636 19.57)"/><path class="c" d="M-58.3,1193.161h3.113a3.137,3.137,0,0,1,3.136,3.136c.19,14.4.169,1.961,0,17.464a3.137,3.137,0,0,1-3.136,3.136H-58.3a3.137,3.137,0,0,1-3.138-3.136c.008-15.547-.1-3.255,0-17.464A3.137,3.137,0,0,1-58.3,1193.161Z" transform="translate(22.636 30.901)"/><path class="c" d="M-66.907,1164.4v-3.112a3.139,3.139,0,0,1,3.138-3.138q21.6-.909,44.885,0a3.137,3.137,0,0,1,3.138,3.138v3.112a3.137,3.137,0,0,1-3.138,3.138c-15.839.214-30.866.286-44.885,0A3.138,3.138,0,0,1-66.907,1164.4Z" transform="translate(19.003 7.142)"/><path class="c" d="M-95.267,1187.863v-3.111a3.137,3.137,0,0,1,3.138-3.138c14.4-.19,1.959-.167,17.462,0a3.137,3.137,0,0,1,3.138,3.138v3.111A3.138,3.138,0,0,1-74.667,1191c-15.547-.007-3.253.1-17.462,0A3.138,3.138,0,0,1-95.267,1187.863Z" transform="translate(0 23.073)"/><path class="c" d="M-78.357,1187.863v-3.111a3.137,3.137,0,0,1,3.138-3.138c14.4-.19,1.959-.167,17.462,0a3.137,3.137,0,0,1,3.138,3.138v3.111A3.138,3.138,0,0,1-57.757,1191c-15.547-.007-3.253.1-17.462,0A3.138,3.138,0,0,1-78.357,1187.863Z" transform="translate(11.331 23.073)"/><path class="c" d="M-95.267,1207.486v-3.113a3.138,3.138,0,0,1,3.138-3.138c14.4-.19,1.959-.167,17.462,0a3.138,3.138,0,0,1,3.138,3.138v3.113a3.139,3.139,0,0,1-3.138,3.138c-15.547-.008-3.253.1-17.462,0A3.139,3.139,0,0,1-95.267,1207.486Z" transform="translate(0 36.221)"/><path class="c" d="M-78.357,1207.486v-3.113a3.138,3.138,0,0,1,3.138-3.138c14.4-.19,1.959-.167,17.462,0a3.138,3.138,0,0,1,3.138,3.138v3.113a3.139,3.139,0,0,1-3.138,3.138c-15.547-.008-3.253.1-17.462,0A3.139,3.139,0,0,1-78.357,1207.486Z" transform="translate(11.331 36.221)"/><path class="c" d="M-95.267,1198.386v-3.111a3.137,3.137,0,0,1,3.138-3.138q21.6-.912,44.885,0a3.137,3.137,0,0,1,3.136,3.138v3.111a3.137,3.137,0,0,1-3.136,3.138c-15.841.214-30.866.285-44.885,0A3.138,3.138,0,0,1-95.267,1198.386Z" transform="translate(0 29.915)"/></g><g transform="translate(95.267 -731.045)"><path class="c" d="M-88.572,1198.206h-3.111a3.138,3.138,0,0,1-3.138-3.138q-.909-21.6,0-44.885a3.137,3.137,0,0,1,3.138-3.138h3.111a3.137,3.137,0,0,1,3.138,3.138c.214,15.841.286,30.866,0,44.885A3.138,3.138,0,0,1-88.572,1198.206Z" transform="translate(0 0)"/><path class="c" d="M-79.4,1198.206h-3.111a3.138,3.138,0,0,1-3.138-3.138q-.912-21.6,0-44.885a3.137,3.137,0,0,1,3.138-3.138H-79.4a3.137,3.137,0,0,1,3.138,3.138c.212,15.841.286,30.866,0,44.885A3.138,3.138,0,0,1-79.4,1198.206Z" transform="translate(6.143 0)"/><path class="c" d="M-69.825,1198.206h-3.113a3.139,3.139,0,0,1-3.138-3.138q-.909-21.6,0-44.885a3.139,3.139,0,0,1,3.138-3.138h3.113a3.137,3.137,0,0,1,3.136,3.138c.214,15.841.286,30.866,0,44.885A3.138,3.138,0,0,1-69.825,1198.206Z" transform="translate(12.56 0)"/><path class="c" d="M-66.907,1153.876v-3.111a3.139,3.139,0,0,1,3.138-3.138c14.4-.19,1.961-.168,17.464,0a3.137,3.137,0,0,1,3.136,3.138v3.111a3.137,3.137,0,0,1-3.136,3.138c-15.547-.008-3.255.1-17.464,0A3.138,3.138,0,0,1-66.907,1153.876Z" transform="translate(19.003 0.3)"/><path class="c" d="M-50,1153.876v-3.111a3.139,3.139,0,0,1,3.138-3.138c14.4-.19,1.961-.168,17.464,0a3.137,3.137,0,0,1,3.136,3.138v3.111a3.137,3.137,0,0,1-3.136,3.138c-15.547-.008-3.255.1-17.464,0A3.138,3.138,0,0,1-50,1153.876Z" transform="translate(30.334 0.3)"/><path class="c" d="M-66.907,1173.5v-3.111a3.139,3.139,0,0,1,3.138-3.138c14.4-.19,1.961-.169,17.464,0a3.137,3.137,0,0,1,3.136,3.138v3.111a3.137,3.137,0,0,1-3.136,3.138c-15.547-.006-3.255.1-17.464,0A3.138,3.138,0,0,1-66.907,1173.5Z" transform="translate(19.003 13.447)"/><path class="c" d="M-50,1173.5v-3.111a3.139,3.139,0,0,1,3.138-3.138c14.4-.19,1.961-.169,17.464,0a3.137,3.137,0,0,1,3.136,3.138v3.111a3.137,3.137,0,0,1-3.136,3.138c-15.547-.006-3.255.1-17.464,0A3.138,3.138,0,0,1-50,1173.5Z" transform="translate(30.334 13.447)"/><path class="c" d="M-38.683,1176.251h3.113a3.138,3.138,0,0,1,3.138,3.136c.19,14.4.167,1.961,0,17.464a3.14,3.14,0,0,1-3.138,3.138h-3.113a3.14,3.14,0,0,1-3.138-3.138c.008-15.547-.1-3.253,0-17.464A3.138,3.138,0,0,1-38.683,1176.251Z" transform="translate(35.783 19.57)"/><path class="c" d="M-38.683,1193.161h3.113a3.138,3.138,0,0,1,3.138,3.136c.19,14.4.167,1.961,0,17.464a3.138,3.138,0,0,1-3.138,3.136h-3.113a3.138,3.138,0,0,1-3.138-3.136c.008-15.547-.1-3.255,0-17.464A3.138,3.138,0,0,1-38.683,1193.161Z" transform="translate(35.783 30.901)"/><path class="c" d="M-48.492,1176.251h3.111a3.137,3.137,0,0,1,3.138,3.136c.19,14.4.167,1.961,0,17.464a3.138,3.138,0,0,1-3.138,3.138h-3.111a3.138,3.138,0,0,1-3.138-3.138c.007-15.547-.1-3.253,0-17.464A3.137,3.137,0,0,1-48.492,1176.251Z" transform="translate(29.21 19.57)"/><path class="c" d="M-48.492,1193.161h3.111a3.137,3.137,0,0,1,3.138,3.136c.19,14.4.167,1.961,0,17.464a3.137,3.137,0,0,1-3.138,3.136h-3.111a3.137,3.137,0,0,1-3.138-3.136c.007-15.547-.1-3.255,0-17.464A3.137,3.137,0,0,1-48.492,1193.161Z" transform="translate(29.21 30.901)"/><path class="c" d="M-58.3,1176.251h3.113a3.137,3.137,0,0,1,3.136,3.136c.19,14.4.169,1.961,0,17.464a3.138,3.138,0,0,1-3.136,3.138H-58.3a3.138,3.138,0,0,1-3.138-3.138c.008-15.547-.1-3.253,0-17.464A3.137,3.137,0,0,1-58.3,1176.251Z" transform="translate(22.636 19.57)"/><path class="c" d="M-58.3,1193.161h3.113a3.137,3.137,0,0,1,3.136,3.136c.19,14.4.169,1.961,0,17.464a3.137,3.137,0,0,1-3.136,3.136H-58.3a3.137,3.137,0,0,1-3.138-3.136c.008-15.547-.1-3.255,0-17.464A3.137,3.137,0,0,1-58.3,1193.161Z" transform="translate(22.636 30.901)"/><path class="c" d="M-66.907,1164.4v-3.112a3.139,3.139,0,0,1,3.138-3.138q21.6-.909,44.885,0a3.137,3.137,0,0,1,3.138,3.138v3.112a3.137,3.137,0,0,1-3.138,3.138c-15.839.214-30.866.286-44.885,0A3.138,3.138,0,0,1-66.907,1164.4Z" transform="translate(19.003 7.142)"/><path class="c" d="M-95.267,1187.863v-3.111a3.137,3.137,0,0,1,3.138-3.138c14.4-.19,1.959-.167,17.462,0a3.137,3.137,0,0,1,3.138,3.138v3.111A3.138,3.138,0,0,1-74.667,1191c-15.547-.007-3.253.1-17.462,0A3.138,3.138,0,0,1-95.267,1187.863Z" transform="translate(0 23.073)"/><path class="c" d="M-78.357,1187.863v-3.111a3.137,3.137,0,0,1,3.138-3.138c14.4-.19,1.959-.167,17.462,0a3.137,3.137,0,0,1,3.138,3.138v3.111A3.138,3.138,0,0,1-57.757,1191c-15.547-.007-3.253.1-17.462,0A3.138,3.138,0,0,1-78.357,1187.863Z" transform="translate(11.331 23.073)"/><path class="c" d="M-95.267,1207.486v-3.113a3.138,3.138,0,0,1,3.138-3.138c14.4-.19,1.959-.167,17.462,0a3.138,3.138,0,0,1,3.138,3.138v3.113a3.139,3.139,0,0,1-3.138,3.138c-15.547-.008-3.253.1-17.462,0A3.139,3.139,0,0,1-95.267,1207.486Z" transform="translate(0 36.221)"/><path class="c" d="M-78.357,1207.486v-3.113a3.138,3.138,0,0,1,3.138-3.138c14.4-.19,1.959-.167,17.462,0a3.138,3.138,0,0,1,3.138,3.138v3.113a3.139,3.139,0,0,1-3.138,3.138c-15.547-.008-3.253.1-17.462,0A3.139,3.139,0,0,1-78.357,1207.486Z" transform="translate(11.331 36.221)"/><path class="c" d="M-95.267,1198.386v-3.111a3.137,3.137,0,0,1,3.138-3.138q21.6-.912,44.885,0a3.137,3.137,0,0,1,3.136,3.138v3.111a3.137,3.137,0,0,1-3.136,3.138c-15.841.214-30.866.285-44.885,0A3.138,3.138,0,0,1-95.267,1198.386Z" transform="translate(0 29.915)"/></g><g transform="translate(95.267 -627.045)"><path class="c" d="M-88.572,1198.206h-3.111a3.138,3.138,0,0,1-3.138-3.138q-.909-21.6,0-44.885a3.137,3.137,0,0,1,3.138-3.138h3.111a3.137,3.137,0,0,1,3.138,3.138c.214,15.841.286,30.866,0,44.885A3.138,3.138,0,0,1-88.572,1198.206Z" transform="translate(0 0)"/><path class="c" d="M-79.4,1198.206h-3.111a3.138,3.138,0,0,1-3.138-3.138q-.912-21.6,0-44.885a3.137,3.137,0,0,1,3.138-3.138H-79.4a3.137,3.137,0,0,1,3.138,3.138c.212,15.841.286,30.866,0,44.885A3.138,3.138,0,0,1-79.4,1198.206Z" transform="translate(6.143 0)"/><path class="c" d="M-69.825,1198.206h-3.113a3.139,3.139,0,0,1-3.138-3.138q-.909-21.6,0-44.885a3.139,3.139,0,0,1,3.138-3.138h3.113a3.137,3.137,0,0,1,3.136,3.138c.214,15.841.286,30.866,0,44.885A3.138,3.138,0,0,1-69.825,1198.206Z" transform="translate(12.56 0)"/><path class="c" d="M-66.907,1153.876v-3.111a3.139,3.139,0,0,1,3.138-3.138c14.4-.19,1.961-.168,17.464,0a3.137,3.137,0,0,1,3.136,3.138v3.111a3.137,3.137,0,0,1-3.136,3.138c-15.547-.008-3.255.1-17.464,0A3.138,3.138,0,0,1-66.907,1153.876Z" transform="translate(19.003 0.3)"/><path class="c" d="M-50,1153.876v-3.111a3.139,3.139,0,0,1,3.138-3.138c14.4-.19,1.961-.168,17.464,0a3.137,3.137,0,0,1,3.136,3.138v3.111a3.137,3.137,0,0,1-3.136,3.138c-15.547-.008-3.255.1-17.464,0A3.138,3.138,0,0,1-50,1153.876Z" transform="translate(30.334 0.3)"/><path class="c" d="M-66.907,1173.5v-3.111a3.139,3.139,0,0,1,3.138-3.138c14.4-.19,1.961-.169,17.464,0a3.137,3.137,0,0,1,3.136,3.138v3.111a3.137,3.137,0,0,1-3.136,3.138c-15.547-.006-3.255.1-17.464,0A3.138,3.138,0,0,1-66.907,1173.5Z" transform="translate(19.003 13.447)"/><path class="c" d="M-50,1173.5v-3.111a3.139,3.139,0,0,1,3.138-3.138c14.4-.19,1.961-.169,17.464,0a3.137,3.137,0,0,1,3.136,3.138v3.111a3.137,3.137,0,0,1-3.136,3.138c-15.547-.006-3.255.1-17.464,0A3.138,3.138,0,0,1-50,1173.5Z" transform="translate(30.334 13.447)"/><path class="c" d="M-38.683,1176.251h3.113a3.138,3.138,0,0,1,3.138,3.136c.19,14.4.167,1.961,0,17.464a3.14,3.14,0,0,1-3.138,3.138h-3.113a3.14,3.14,0,0,1-3.138-3.138c.008-15.547-.1-3.253,0-17.464A3.138,3.138,0,0,1-38.683,1176.251Z" transform="translate(35.783 19.57)"/><path class="c" d="M-38.683,1193.161h3.113a3.138,3.138,0,0,1,3.138,3.136c.19,14.4.167,1.961,0,17.464a3.138,3.138,0,0,1-3.138,3.136h-3.113a3.138,3.138,0,0,1-3.138-3.136c.008-15.547-.1-3.255,0-17.464A3.138,3.138,0,0,1-38.683,1193.161Z" transform="translate(35.783 30.901)"/><path class="c" d="M-48.492,1176.251h3.111a3.137,3.137,0,0,1,3.138,3.136c.19,14.4.167,1.961,0,17.464a3.138,3.138,0,0,1-3.138,3.138h-3.111a3.138,3.138,0,0,1-3.138-3.138c.007-15.547-.1-3.253,0-17.464A3.137,3.137,0,0,1-48.492,1176.251Z" transform="translate(29.21 19.57)"/><path class="c" d="M-48.492,1193.161h3.111a3.137,3.137,0,0,1,3.138,3.136c.19,14.4.167,1.961,0,17.464a3.137,3.137,0,0,1-3.138,3.136h-3.111a3.137,3.137,0,0,1-3.138-3.136c.007-15.547-.1-3.255,0-17.464A3.137,3.137,0,0,1-48.492,1193.161Z" transform="translate(29.21 30.901)"/><path class="c" d="M-58.3,1176.251h3.113a3.137,3.137,0,0,1,3.136,3.136c.19,14.4.169,1.961,0,17.464a3.138,3.138,0,0,1-3.136,3.138H-58.3a3.138,3.138,0,0,1-3.138-3.138c.008-15.547-.1-3.253,0-17.464A3.137,3.137,0,0,1-58.3,1176.251Z" transform="translate(22.636 19.57)"/><path class="c" d="M-58.3,1193.161h3.113a3.137,3.137,0,0,1,3.136,3.136c.19,14.4.169,1.961,0,17.464a3.137,3.137,0,0,1-3.136,3.136H-58.3a3.137,3.137,0,0,1-3.138-3.136c.008-15.547-.1-3.255,0-17.464A3.137,3.137,0,0,1-58.3,1193.161Z" transform="translate(22.636 30.901)"/><path class="c" d="M-66.907,1164.4v-3.112a3.139,3.139,0,0,1,3.138-3.138q21.6-.909,44.885,0a3.137,3.137,0,0,1,3.138,3.138v3.112a3.137,3.137,0,0,1-3.138,3.138c-15.839.214-30.866.286-44.885,0A3.138,3.138,0,0,1-66.907,1164.4Z" transform="translate(19.003 7.142)"/><path class="c" d="M-95.267,1187.863v-3.111a3.137,3.137,0,0,1,3.138-3.138c14.4-.19,1.959-.167,17.462,0a3.137,3.137,0,0,1,3.138,3.138v3.111A3.138,3.138,0,0,1-74.667,1191c-15.547-.007-3.253.1-17.462,0A3.138,3.138,0,0,1-95.267,1187.863Z" transform="translate(0 23.073)"/><path class="c" d="M-78.357,1187.863v-3.111a3.137,3.137,0,0,1,3.138-3.138c14.4-.19,1.959-.167,17.462,0a3.137,3.137,0,0,1,3.138,3.138v3.111A3.138,3.138,0,0,1-57.757,1191c-15.547-.007-3.253.1-17.462,0A3.138,3.138,0,0,1-78.357,1187.863Z" transform="translate(11.331 23.073)"/><path class="c" d="M-95.267,1207.486v-3.113a3.138,3.138,0,0,1,3.138-3.138c14.4-.19,1.959-.167,17.462,0a3.138,3.138,0,0,1,3.138,3.138v3.113a3.139,3.139,0,0,1-3.138,3.138c-15.547-.008-3.253.1-17.462,0A3.139,3.139,0,0,1-95.267,1207.486Z" transform="translate(0 36.221)"/><path class="c" d="M-78.357,1207.486v-3.113a3.138,3.138,0,0,1,3.138-3.138c14.4-.19,1.959-.167,17.462,0a3.138,3.138,0,0,1,3.138,3.138v3.113a3.139,3.139,0,0,1-3.138,3.138c-15.547-.008-3.253.1-17.462,0A3.139,3.139,0,0,1-78.357,1207.486Z" transform="translate(11.331 36.221)"/><path class="c" d="M-95.267,1198.386v-3.111a3.137,3.137,0,0,1,3.138-3.138q21.6-.912,44.885,0a3.137,3.137,0,0,1,3.136,3.138v3.111a3.137,3.137,0,0,1-3.136,3.138c-15.841.214-30.866.285-44.885,0A3.138,3.138,0,0,1-95.267,1198.386Z" transform="translate(0 29.915)"/></g><g transform="translate(95.267 -523.045)"><path class="c" d="M-88.572,1198.206h-3.111a3.138,3.138,0,0,1-3.138-3.138q-.909-21.6,0-44.885a3.137,3.137,0,0,1,3.138-3.138h3.111a3.137,3.137,0,0,1,3.138,3.138c.214,15.841.286,30.866,0,44.885A3.138,3.138,0,0,1-88.572,1198.206Z" transform="translate(0 0)"/><path class="c" d="M-79.4,1198.206h-3.111a3.138,3.138,0,0,1-3.138-3.138q-.912-21.6,0-44.885a3.137,3.137,0,0,1,3.138-3.138H-79.4a3.137,3.137,0,0,1,3.138,3.138c.212,15.841.286,30.866,0,44.885A3.138,3.138,0,0,1-79.4,1198.206Z" transform="translate(6.143 0)"/><path class="c" d="M-69.825,1198.206h-3.113a3.139,3.139,0,0,1-3.138-3.138q-.909-21.6,0-44.885a3.139,3.139,0,0,1,3.138-3.138h3.113a3.137,3.137,0,0,1,3.136,3.138c.214,15.841.286,30.866,0,44.885A3.138,3.138,0,0,1-69.825,1198.206Z" transform="translate(12.56 0)"/><path class="c" d="M-66.907,1153.876v-3.111a3.139,3.139,0,0,1,3.138-3.138c14.4-.19,1.961-.168,17.464,0a3.137,3.137,0,0,1,3.136,3.138v3.111a3.137,3.137,0,0,1-3.136,3.138c-15.547-.008-3.255.1-17.464,0A3.138,3.138,0,0,1-66.907,1153.876Z" transform="translate(19.003 0.3)"/><path class="c" d="M-50,1153.876v-3.111a3.139,3.139,0,0,1,3.138-3.138c14.4-.19,1.961-.168,17.464,0a3.137,3.137,0,0,1,3.136,3.138v3.111a3.137,3.137,0,0,1-3.136,3.138c-15.547-.008-3.255.1-17.464,0A3.138,3.138,0,0,1-50,1153.876Z" transform="translate(30.334 0.3)"/><path class="c" d="M-66.907,1173.5v-3.111a3.139,3.139,0,0,1,3.138-3.138c14.4-.19,1.961-.169,17.464,0a3.137,3.137,0,0,1,3.136,3.138v3.111a3.137,3.137,0,0,1-3.136,3.138c-15.547-.006-3.255.1-17.464,0A3.138,3.138,0,0,1-66.907,1173.5Z" transform="translate(19.003 13.447)"/><path class="c" d="M-50,1173.5v-3.111a3.139,3.139,0,0,1,3.138-3.138c14.4-.19,1.961-.169,17.464,0a3.137,3.137,0,0,1,3.136,3.138v3.111a3.137,3.137,0,0,1-3.136,3.138c-15.547-.006-3.255.1-17.464,0A3.138,3.138,0,0,1-50,1173.5Z" transform="translate(30.334 13.447)"/><path class="c" d="M-38.683,1176.251h3.113a3.138,3.138,0,0,1,3.138,3.136c.19,14.4.167,1.961,0,17.464a3.14,3.14,0,0,1-3.138,3.138h-3.113a3.14,3.14,0,0,1-3.138-3.138c.008-15.547-.1-3.253,0-17.464A3.138,3.138,0,0,1-38.683,1176.251Z" transform="translate(35.783 19.57)"/><path class="c" d="M-38.683,1193.161h3.113a3.138,3.138,0,0,1,3.138,3.136c.19,14.4.167,1.961,0,17.464a3.138,3.138,0,0,1-3.138,3.136h-3.113a3.138,3.138,0,0,1-3.138-3.136c.008-15.547-.1-3.255,0-17.464A3.138,3.138,0,0,1-38.683,1193.161Z" transform="translate(35.783 30.901)"/><path class="c" d="M-48.492,1176.251h3.111a3.137,3.137,0,0,1,3.138,3.136c.19,14.4.167,1.961,0,17.464a3.138,3.138,0,0,1-3.138,3.138h-3.111a3.138,3.138,0,0,1-3.138-3.138c.007-15.547-.1-3.253,0-17.464A3.137,3.137,0,0,1-48.492,1176.251Z" transform="translate(29.21 19.57)"/><path class="c" d="M-48.492,1193.161h3.111a3.137,3.137,0,0,1,3.138,3.136c.19,14.4.167,1.961,0,17.464a3.137,3.137,0,0,1-3.138,3.136h-3.111a3.137,3.137,0,0,1-3.138-3.136c.007-15.547-.1-3.255,0-17.464A3.137,3.137,0,0,1-48.492,1193.161Z" transform="translate(29.21 30.901)"/><path class="c" d="M-58.3,1176.251h3.113a3.137,3.137,0,0,1,3.136,3.136c.19,14.4.169,1.961,0,17.464a3.138,3.138,0,0,1-3.136,3.138H-58.3a3.138,3.138,0,0,1-3.138-3.138c.008-15.547-.1-3.253,0-17.464A3.137,3.137,0,0,1-58.3,1176.251Z" transform="translate(22.636 19.57)"/><path class="c" d="M-58.3,1193.161h3.113a3.137,3.137,0,0,1,3.136,3.136c.19,14.4.169,1.961,0,17.464a3.137,3.137,0,0,1-3.136,3.136H-58.3a3.137,3.137,0,0,1-3.138-3.136c.008-15.547-.1-3.255,0-17.464A3.137,3.137,0,0,1-58.3,1193.161Z" transform="translate(22.636 30.901)"/><path class="c" d="M-66.907,1164.4v-3.112a3.139,3.139,0,0,1,3.138-3.138q21.6-.909,44.885,0a3.137,3.137,0,0,1,3.138,3.138v3.112a3.137,3.137,0,0,1-3.138,3.138c-15.839.214-30.866.286-44.885,0A3.138,3.138,0,0,1-66.907,1164.4Z" transform="translate(19.003 7.142)"/><path class="c" d="M-95.267,1187.863v-3.111a3.137,3.137,0,0,1,3.138-3.138c14.4-.19,1.959-.167,17.462,0a3.137,3.137,0,0,1,3.138,3.138v3.111A3.138,3.138,0,0,1-74.667,1191c-15.547-.007-3.253.1-17.462,0A3.138,3.138,0,0,1-95.267,1187.863Z" transform="translate(0 23.073)"/><path class="c" d="M-78.357,1187.863v-3.111a3.137,3.137,0,0,1,3.138-3.138c14.4-.19,1.959-.167,17.462,0a3.137,3.137,0,0,1,3.138,3.138v3.111A3.138,3.138,0,0,1-57.757,1191c-15.547-.007-3.253.1-17.462,0A3.138,3.138,0,0,1-78.357,1187.863Z" transform="translate(11.331 23.073)"/><path class="c" d="M-95.267,1207.486v-3.113a3.138,3.138,0,0,1,3.138-3.138c14.4-.19,1.959-.167,17.462,0a3.138,3.138,0,0,1,3.138,3.138v3.113a3.139,3.139,0,0,1-3.138,3.138c-15.547-.008-3.253.1-17.462,0A3.139,3.139,0,0,1-95.267,1207.486Z" transform="translate(0 36.221)"/><path class="c" d="M-78.357,1207.486v-3.113a3.138,3.138,0,0,1,3.138-3.138c14.4-.19,1.959-.167,17.462,0a3.138,3.138,0,0,1,3.138,3.138v3.113a3.139,3.139,0,0,1-3.138,3.138c-15.547-.008-3.253.1-17.462,0A3.139,3.139,0,0,1-78.357,1207.486Z" transform="translate(11.331 36.221)"/><path class="c" d="M-95.267,1198.386v-3.111a3.137,3.137,0,0,1,3.138-3.138q21.6-.912,44.885,0a3.137,3.137,0,0,1,3.136,3.138v3.111a3.137,3.137,0,0,1-3.136,3.138c-15.841.214-30.866.285-44.885,0A3.138,3.138,0,0,1-95.267,1198.386Z" transform="translate(0 29.915)"/></g><g transform="translate(95.267 -419.045)"><path class="c" d="M-88.572,1198.206h-3.111a3.138,3.138,0,0,1-3.138-3.138q-.909-21.6,0-44.885a3.137,3.137,0,0,1,3.138-3.138h3.111a3.137,3.137,0,0,1,3.138,3.138c.214,15.841.286,30.866,0,44.885A3.138,3.138,0,0,1-88.572,1198.206Z" transform="translate(0 0)"/><path class="c" d="M-79.4,1198.206h-3.111a3.138,3.138,0,0,1-3.138-3.138q-.912-21.6,0-44.885a3.137,3.137,0,0,1,3.138-3.138H-79.4a3.137,3.137,0,0,1,3.138,3.138c.212,15.841.286,30.866,0,44.885A3.138,3.138,0,0,1-79.4,1198.206Z" transform="translate(6.143 0)"/><path class="c" d="M-69.825,1198.206h-3.113a3.139,3.139,0,0,1-3.138-3.138q-.909-21.6,0-44.885a3.139,3.139,0,0,1,3.138-3.138h3.113a3.137,3.137,0,0,1,3.136,3.138c.214,15.841.286,30.866,0,44.885A3.138,3.138,0,0,1-69.825,1198.206Z" transform="translate(12.56 0)"/><path class="c" d="M-66.907,1153.876v-3.111a3.139,3.139,0,0,1,3.138-3.138c14.4-.19,1.961-.168,17.464,0a3.137,3.137,0,0,1,3.136,3.138v3.111a3.137,3.137,0,0,1-3.136,3.138c-15.547-.008-3.255.1-17.464,0A3.138,3.138,0,0,1-66.907,1153.876Z" transform="translate(19.003 0.3)"/><path class="c" d="M-50,1153.876v-3.111a3.139,3.139,0,0,1,3.138-3.138c14.4-.19,1.961-.168,17.464,0a3.137,3.137,0,0,1,3.136,3.138v3.111a3.137,3.137,0,0,1-3.136,3.138c-15.547-.008-3.255.1-17.464,0A3.138,3.138,0,0,1-50,1153.876Z" transform="translate(30.334 0.3)"/><path class="c" d="M-66.907,1173.5v-3.111a3.139,3.139,0,0,1,3.138-3.138c14.4-.19,1.961-.169,17.464,0a3.137,3.137,0,0,1,3.136,3.138v3.111a3.137,3.137,0,0,1-3.136,3.138c-15.547-.006-3.255.1-17.464,0A3.138,3.138,0,0,1-66.907,1173.5Z" transform="translate(19.003 13.447)"/><path class="c" d="M-50,1173.5v-3.111a3.139,3.139,0,0,1,3.138-3.138c14.4-.19,1.961-.169,17.464,0a3.137,3.137,0,0,1,3.136,3.138v3.111a3.137,3.137,0,0,1-3.136,3.138c-15.547-.006-3.255.1-17.464,0A3.138,3.138,0,0,1-50,1173.5Z" transform="translate(30.334 13.447)"/><path class="c" d="M-38.683,1176.251h3.113a3.138,3.138,0,0,1,3.138,3.136c.19,14.4.167,1.961,0,17.464a3.14,3.14,0,0,1-3.138,3.138h-3.113a3.14,3.14,0,0,1-3.138-3.138c.008-15.547-.1-3.253,0-17.464A3.138,3.138,0,0,1-38.683,1176.251Z" transform="translate(35.783 19.57)"/><path class="c" d="M-38.683,1193.161h3.113a3.138,3.138,0,0,1,3.138,3.136c.19,14.4.167,1.961,0,17.464a3.138,3.138,0,0,1-3.138,3.136h-3.113a3.138,3.138,0,0,1-3.138-3.136c.008-15.547-.1-3.255,0-17.464A3.138,3.138,0,0,1-38.683,1193.161Z" transform="translate(35.783 30.901)"/><path class="c" d="M-48.492,1176.251h3.111a3.137,3.137,0,0,1,3.138,3.136c.19,14.4.167,1.961,0,17.464a3.138,3.138,0,0,1-3.138,3.138h-3.111a3.138,3.138,0,0,1-3.138-3.138c.007-15.547-.1-3.253,0-17.464A3.137,3.137,0,0,1-48.492,1176.251Z" transform="translate(29.21 19.57)"/><path class="c" d="M-48.492,1193.161h3.111a3.137,3.137,0,0,1,3.138,3.136c.19,14.4.167,1.961,0,17.464a3.137,3.137,0,0,1-3.138,3.136h-3.111a3.137,3.137,0,0,1-3.138-3.136c.007-15.547-.1-3.255,0-17.464A3.137,3.137,0,0,1-48.492,1193.161Z" transform="translate(29.21 30.901)"/><path class="c" d="M-58.3,1176.251h3.113a3.137,3.137,0,0,1,3.136,3.136c.19,14.4.169,1.961,0,17.464a3.138,3.138,0,0,1-3.136,3.138H-58.3a3.138,3.138,0,0,1-3.138-3.138c.008-15.547-.1-3.253,0-17.464A3.137,3.137,0,0,1-58.3,1176.251Z" transform="translate(22.636 19.57)"/><path class="c" d="M-58.3,1193.161h3.113a3.137,3.137,0,0,1,3.136,3.136c.19,14.4.169,1.961,0,17.464a3.137,3.137,0,0,1-3.136,3.136H-58.3a3.137,3.137,0,0,1-3.138-3.136c.008-15.547-.1-3.255,0-17.464A3.137,3.137,0,0,1-58.3,1193.161Z" transform="translate(22.636 30.901)"/><path class="c" d="M-66.907,1164.4v-3.112a3.139,3.139,0,0,1,3.138-3.138q21.6-.909,44.885,0a3.137,3.137,0,0,1,3.138,3.138v3.112a3.137,3.137,0,0,1-3.138,3.138c-15.839.214-30.866.286-44.885,0A3.138,3.138,0,0,1-66.907,1164.4Z" transform="translate(19.003 7.142)"/><path class="c" d="M-95.267,1187.863v-3.111a3.137,3.137,0,0,1,3.138-3.138c14.4-.19,1.959-.167,17.462,0a3.137,3.137,0,0,1,3.138,3.138v3.111A3.138,3.138,0,0,1-74.667,1191c-15.547-.007-3.253.1-17.462,0A3.138,3.138,0,0,1-95.267,1187.863Z" transform="translate(0 23.073)"/><path class="c" d="M-78.357,1187.863v-3.111a3.137,3.137,0,0,1,3.138-3.138c14.4-.19,1.959-.167,17.462,0a3.137,3.137,0,0,1,3.138,3.138v3.111A3.138,3.138,0,0,1-57.757,1191c-15.547-.007-3.253.1-17.462,0A3.138,3.138,0,0,1-78.357,1187.863Z" transform="translate(11.331 23.073)"/><path class="c" d="M-95.267,1207.486v-3.113a3.138,3.138,0,0,1,3.138-3.138c14.4-.19,1.959-.167,17.462,0a3.138,3.138,0,0,1,3.138,3.138v3.113a3.139,3.139,0,0,1-3.138,3.138c-15.547-.008-3.253.1-17.462,0A3.139,3.139,0,0,1-95.267,1207.486Z" transform="translate(0 36.221)"/><path class="c" d="M-78.357,1207.486v-3.113a3.138,3.138,0,0,1,3.138-3.138c14.4-.19,1.959-.167,17.462,0a3.138,3.138,0,0,1,3.138,3.138v3.113a3.139,3.139,0,0,1-3.138,3.138c-15.547-.008-3.253.1-17.462,0A3.139,3.139,0,0,1-78.357,1207.486Z" transform="translate(11.331 36.221)"/><path class="c" d="M-95.267,1198.386v-3.111a3.137,3.137,0,0,1,3.138-3.138q21.6-.912,44.885,0a3.137,3.137,0,0,1,3.136,3.138v3.111a3.137,3.137,0,0,1-3.136,3.138c-15.841.214-30.866.285-44.885,0A3.138,3.138,0,0,1-95.267,1198.386Z" transform="translate(0 29.915)"/></g><g transform="translate(95.267 -315.045)"><path class="c" d="M-88.572,1198.206h-3.111a3.138,3.138,0,0,1-3.138-3.138q-.909-21.6,0-44.885a3.137,3.137,0,0,1,3.138-3.138h3.111a3.137,3.137,0,0,1,3.138,3.138c.214,15.841.286,30.866,0,44.885A3.138,3.138,0,0,1-88.572,1198.206Z" transform="translate(0 0)"/><path class="c" d="M-79.4,1198.206h-3.111a3.138,3.138,0,0,1-3.138-3.138q-.912-21.6,0-44.885a3.137,3.137,0,0,1,3.138-3.138H-79.4a3.137,3.137,0,0,1,3.138,3.138c.212,15.841.286,30.866,0,44.885A3.138,3.138,0,0,1-79.4,1198.206Z" transform="translate(6.143 0)"/><path class="c" d="M-69.825,1198.206h-3.113a3.139,3.139,0,0,1-3.138-3.138q-.909-21.6,0-44.885a3.139,3.139,0,0,1,3.138-3.138h3.113a3.137,3.137,0,0,1,3.136,3.138c.214,15.841.286,30.866,0,44.885A3.138,3.138,0,0,1-69.825,1198.206Z" transform="translate(12.56 0)"/><path class="c" d="M-66.907,1153.876v-3.111a3.139,3.139,0,0,1,3.138-3.138c14.4-.19,1.961-.168,17.464,0a3.137,3.137,0,0,1,3.136,3.138v3.111a3.137,3.137,0,0,1-3.136,3.138c-15.547-.008-3.255.1-17.464,0A3.138,3.138,0,0,1-66.907,1153.876Z" transform="translate(19.003 0.3)"/><path class="c" d="M-50,1153.876v-3.111a3.139,3.139,0,0,1,3.138-3.138c14.4-.19,1.961-.168,17.464,0a3.137,3.137,0,0,1,3.136,3.138v3.111a3.137,3.137,0,0,1-3.136,3.138c-15.547-.008-3.255.1-17.464,0A3.138,3.138,0,0,1-50,1153.876Z" transform="translate(30.334 0.3)"/><path class="c" d="M-66.907,1173.5v-3.111a3.139,3.139,0,0,1,3.138-3.138c14.4-.19,1.961-.169,17.464,0a3.137,3.137,0,0,1,3.136,3.138v3.111a3.137,3.137,0,0,1-3.136,3.138c-15.547-.006-3.255.1-17.464,0A3.138,3.138,0,0,1-66.907,1173.5Z" transform="translate(19.003 13.447)"/><path class="c" d="M-50,1173.5v-3.111a3.139,3.139,0,0,1,3.138-3.138c14.4-.19,1.961-.169,17.464,0a3.137,3.137,0,0,1,3.136,3.138v3.111a3.137,3.137,0,0,1-3.136,3.138c-15.547-.006-3.255.1-17.464,0A3.138,3.138,0,0,1-50,1173.5Z" transform="translate(30.334 13.447)"/><path class="c" d="M-38.683,1176.251h3.113a3.138,3.138,0,0,1,3.138,3.136c.19,14.4.167,1.961,0,17.464a3.14,3.14,0,0,1-3.138,3.138h-3.113a3.14,3.14,0,0,1-3.138-3.138c.008-15.547-.1-3.253,0-17.464A3.138,3.138,0,0,1-38.683,1176.251Z" transform="translate(35.783 19.57)"/><path class="c" d="M-38.683,1193.161h3.113a3.138,3.138,0,0,1,3.138,3.136c.19,14.4.167,1.961,0,17.464a3.138,3.138,0,0,1-3.138,3.136h-3.113a3.138,3.138,0,0,1-3.138-3.136c.008-15.547-.1-3.255,0-17.464A3.138,3.138,0,0,1-38.683,1193.161Z" transform="translate(35.783 30.901)"/><path class="c" d="M-48.492,1176.251h3.111a3.137,3.137,0,0,1,3.138,3.136c.19,14.4.167,1.961,0,17.464a3.138,3.138,0,0,1-3.138,3.138h-3.111a3.138,3.138,0,0,1-3.138-3.138c.007-15.547-.1-3.253,0-17.464A3.137,3.137,0,0,1-48.492,1176.251Z" transform="translate(29.21 19.57)"/><path class="c" d="M-48.492,1193.161h3.111a3.137,3.137,0,0,1,3.138,3.136c.19,14.4.167,1.961,0,17.464a3.137,3.137,0,0,1-3.138,3.136h-3.111a3.137,3.137,0,0,1-3.138-3.136c.007-15.547-.1-3.255,0-17.464A3.137,3.137,0,0,1-48.492,1193.161Z" transform="translate(29.21 30.901)"/><path class="c" d="M-58.3,1176.251h3.113a3.137,3.137,0,0,1,3.136,3.136c.19,14.4.169,1.961,0,17.464a3.138,3.138,0,0,1-3.136,3.138H-58.3a3.138,3.138,0,0,1-3.138-3.138c.008-15.547-.1-3.253,0-17.464A3.137,3.137,0,0,1-58.3,1176.251Z" transform="translate(22.636 19.57)"/><path class="c" d="M-58.3,1193.161h3.113a3.137,3.137,0,0,1,3.136,3.136c.19,14.4.169,1.961,0,17.464a3.137,3.137,0,0,1-3.136,3.136H-58.3a3.137,3.137,0,0,1-3.138-3.136c.008-15.547-.1-3.255,0-17.464A3.137,3.137,0,0,1-58.3,1193.161Z" transform="translate(22.636 30.901)"/><path class="c" d="M-66.907,1164.4v-3.112a3.139,3.139,0,0,1,3.138-3.138q21.6-.909,44.885,0a3.137,3.137,0,0,1,3.138,3.138v3.112a3.137,3.137,0,0,1-3.138,3.138c-15.839.214-30.866.286-44.885,0A3.138,3.138,0,0,1-66.907,1164.4Z" transform="translate(19.003 7.142)"/><path class="c" d="M-95.267,1187.863v-3.111a3.137,3.137,0,0,1,3.138-3.138c14.4-.19,1.959-.167,17.462,0a3.137,3.137,0,0,1,3.138,3.138v3.111A3.138,3.138,0,0,1-74.667,1191c-15.547-.007-3.253.1-17.462,0A3.138,3.138,0,0,1-95.267,1187.863Z" transform="translate(0 23.073)"/><path class="c" d="M-78.357,1187.863v-3.111a3.137,3.137,0,0,1,3.138-3.138c14.4-.19,1.959-.167,17.462,0a3.137,3.137,0,0,1,3.138,3.138v3.111A3.138,3.138,0,0,1-57.757,1191c-15.547-.007-3.253.1-17.462,0A3.138,3.138,0,0,1-78.357,1187.863Z" transform="translate(11.331 23.073)"/><path class="c" d="M-95.267,1207.486v-3.113a3.138,3.138,0,0,1,3.138-3.138c14.4-.19,1.959-.167,17.462,0a3.138,3.138,0,0,1,3.138,3.138v3.113a3.139,3.139,0,0,1-3.138,3.138c-15.547-.008-3.253.1-17.462,0A3.139,3.139,0,0,1-95.267,1207.486Z" transform="translate(0 36.221)"/><path class="c" d="M-78.357,1207.486v-3.113a3.138,3.138,0,0,1,3.138-3.138c14.4-.19,1.959-.167,17.462,0a3.138,3.138,0,0,1,3.138,3.138v3.113a3.139,3.139,0,0,1-3.138,3.138c-15.547-.008-3.253.1-17.462,0A3.139,3.139,0,0,1-78.357,1207.486Z" transform="translate(11.331 36.221)"/><path class="c" d="M-95.267,1198.386v-3.111a3.137,3.137,0,0,1,3.138-3.138q21.6-.912,44.885,0a3.137,3.137,0,0,1,3.136,3.138v3.111a3.137,3.137,0,0,1-3.136,3.138c-15.841.214-30.866.285-44.885,0A3.138,3.138,0,0,1-95.267,1198.386Z" transform="translate(0 29.915)"/></g><g transform="translate(95.267 -211.045)"><path class="c" d="M-88.572,1198.206h-3.111a3.138,3.138,0,0,1-3.138-3.138q-.909-21.6,0-44.885a3.137,3.137,0,0,1,3.138-3.138h3.111a3.137,3.137,0,0,1,3.138,3.138c.214,15.841.286,30.866,0,44.885A3.138,3.138,0,0,1-88.572,1198.206Z" transform="translate(0 0)"/><path class="c" d="M-79.4,1198.206h-3.111a3.138,3.138,0,0,1-3.138-3.138q-.912-21.6,0-44.885a3.137,3.137,0,0,1,3.138-3.138H-79.4a3.137,3.137,0,0,1,3.138,3.138c.212,15.841.286,30.866,0,44.885A3.138,3.138,0,0,1-79.4,1198.206Z" transform="translate(6.143 0)"/><path class="c" d="M-69.825,1198.206h-3.113a3.139,3.139,0,0,1-3.138-3.138q-.909-21.6,0-44.885a3.139,3.139,0,0,1,3.138-3.138h3.113a3.137,3.137,0,0,1,3.136,3.138c.214,15.841.286,30.866,0,44.885A3.138,3.138,0,0,1-69.825,1198.206Z" transform="translate(12.56 0)"/><path class="c" d="M-66.907,1153.876v-3.111a3.139,3.139,0,0,1,3.138-3.138c14.4-.19,1.961-.168,17.464,0a3.137,3.137,0,0,1,3.136,3.138v3.111a3.137,3.137,0,0,1-3.136,3.138c-15.547-.008-3.255.1-17.464,0A3.138,3.138,0,0,1-66.907,1153.876Z" transform="translate(19.003 0.3)"/><path class="c" d="M-50,1153.876v-3.111a3.139,3.139,0,0,1,3.138-3.138c14.4-.19,1.961-.168,17.464,0a3.137,3.137,0,0,1,3.136,3.138v3.111a3.137,3.137,0,0,1-3.136,3.138c-15.547-.008-3.255.1-17.464,0A3.138,3.138,0,0,1-50,1153.876Z" transform="translate(30.334 0.3)"/><path class="c" d="M-66.907,1173.5v-3.111a3.139,3.139,0,0,1,3.138-3.138c14.4-.19,1.961-.169,17.464,0a3.137,3.137,0,0,1,3.136,3.138v3.111a3.137,3.137,0,0,1-3.136,3.138c-15.547-.006-3.255.1-17.464,0A3.138,3.138,0,0,1-66.907,1173.5Z" transform="translate(19.003 13.447)"/><path class="c" d="M-50,1173.5v-3.111a3.139,3.139,0,0,1,3.138-3.138c14.4-.19,1.961-.169,17.464,0a3.137,3.137,0,0,1,3.136,3.138v3.111a3.137,3.137,0,0,1-3.136,3.138c-15.547-.006-3.255.1-17.464,0A3.138,3.138,0,0,1-50,1173.5Z" transform="translate(30.334 13.447)"/><path class="c" d="M-38.683,1176.251h3.113a3.138,3.138,0,0,1,3.138,3.136c.19,14.4.167,1.961,0,17.464a3.14,3.14,0,0,1-3.138,3.138h-3.113a3.14,3.14,0,0,1-3.138-3.138c.008-15.547-.1-3.253,0-17.464A3.138,3.138,0,0,1-38.683,1176.251Z" transform="translate(35.783 19.57)"/><path class="c" d="M-38.683,1193.161h3.113a3.138,3.138,0,0,1,3.138,3.136c.19,14.4.167,1.961,0,17.464a3.138,3.138,0,0,1-3.138,3.136h-3.113a3.138,3.138,0,0,1-3.138-3.136c.008-15.547-.1-3.255,0-17.464A3.138,3.138,0,0,1-38.683,1193.161Z" transform="translate(35.783 30.901)"/><path class="c" d="M-48.492,1176.251h3.111a3.137,3.137,0,0,1,3.138,3.136c.19,14.4.167,1.961,0,17.464a3.138,3.138,0,0,1-3.138,3.138h-3.111a3.138,3.138,0,0,1-3.138-3.138c.007-15.547-.1-3.253,0-17.464A3.137,3.137,0,0,1-48.492,1176.251Z" transform="translate(29.21 19.57)"/><path class="c" d="M-48.492,1193.161h3.111a3.137,3.137,0,0,1,3.138,3.136c.19,14.4.167,1.961,0,17.464a3.137,3.137,0,0,1-3.138,3.136h-3.111a3.137,3.137,0,0,1-3.138-3.136c.007-15.547-.1-3.255,0-17.464A3.137,3.137,0,0,1-48.492,1193.161Z" transform="translate(29.21 30.901)"/><path class="c" d="M-58.3,1176.251h3.113a3.137,3.137,0,0,1,3.136,3.136c.19,14.4.169,1.961,0,17.464a3.138,3.138,0,0,1-3.136,3.138H-58.3a3.138,3.138,0,0,1-3.138-3.138c.008-15.547-.1-3.253,0-17.464A3.137,3.137,0,0,1-58.3,1176.251Z" transform="translate(22.636 19.57)"/><path class="c" d="M-58.3,1193.161h3.113a3.137,3.137,0,0,1,3.136,3.136c.19,14.4.169,1.961,0,17.464a3.137,3.137,0,0,1-3.136,3.136H-58.3a3.137,3.137,0,0,1-3.138-3.136c.008-15.547-.1-3.255,0-17.464A3.137,3.137,0,0,1-58.3,1193.161Z" transform="translate(22.636 30.901)"/><path class="c" d="M-66.907,1164.4v-3.112a3.139,3.139,0,0,1,3.138-3.138q21.6-.909,44.885,0a3.137,3.137,0,0,1,3.138,3.138v3.112a3.137,3.137,0,0,1-3.138,3.138c-15.839.214-30.866.286-44.885,0A3.138,3.138,0,0,1-66.907,1164.4Z" transform="translate(19.003 7.142)"/><path class="c" d="M-95.267,1187.863v-3.111a3.137,3.137,0,0,1,3.138-3.138c14.4-.19,1.959-.167,17.462,0a3.137,3.137,0,0,1,3.138,3.138v3.111A3.138,3.138,0,0,1-74.667,1191c-15.547-.007-3.253.1-17.462,0A3.138,3.138,0,0,1-95.267,1187.863Z" transform="translate(0 23.073)"/><path class="c" d="M-78.357,1187.863v-3.111a3.137,3.137,0,0,1,3.138-3.138c14.4-.19,1.959-.167,17.462,0a3.137,3.137,0,0,1,3.138,3.138v3.111A3.138,3.138,0,0,1-57.757,1191c-15.547-.007-3.253.1-17.462,0A3.138,3.138,0,0,1-78.357,1187.863Z" transform="translate(11.331 23.073)"/><path class="c" d="M-95.267,1207.486v-3.113a3.138,3.138,0,0,1,3.138-3.138c14.4-.19,1.959-.167,17.462,0a3.138,3.138,0,0,1,3.138,3.138v3.113a3.139,3.139,0,0,1-3.138,3.138c-15.547-.008-3.253.1-17.462,0A3.139,3.139,0,0,1-95.267,1207.486Z" transform="translate(0 36.221)"/><path class="c" d="M-78.357,1207.486v-3.113a3.138,3.138,0,0,1,3.138-3.138c14.4-.19,1.959-.167,17.462,0a3.138,3.138,0,0,1,3.138,3.138v3.113a3.139,3.139,0,0,1-3.138,3.138c-15.547-.008-3.253.1-17.462,0A3.139,3.139,0,0,1-78.357,1207.486Z" transform="translate(11.331 36.221)"/><path class="c" d="M-95.267,1198.386v-3.111a3.137,3.137,0,0,1,3.138-3.138q21.6-.912,44.885,0a3.137,3.137,0,0,1,3.136,3.138v3.111a3.137,3.137,0,0,1-3.136,3.138c-15.841.214-30.866.285-44.885,0A3.138,3.138,0,0,1-95.267,1198.386Z" transform="translate(0 29.915)"/></g><g transform="translate(95.267 -107.045)"><path class="c" d="M-88.572,1198.206h-3.111a3.138,3.138,0,0,1-3.138-3.138q-.909-21.6,0-44.885a3.137,3.137,0,0,1,3.138-3.138h3.111a3.137,3.137,0,0,1,3.138,3.138c.214,15.841.286,30.866,0,44.885A3.138,3.138,0,0,1-88.572,1198.206Z" transform="translate(0 0)"/><path class="c" d="M-79.4,1198.206h-3.111a3.138,3.138,0,0,1-3.138-3.138q-.912-21.6,0-44.885a3.137,3.137,0,0,1,3.138-3.138H-79.4a3.137,3.137,0,0,1,3.138,3.138c.212,15.841.286,30.866,0,44.885A3.138,3.138,0,0,1-79.4,1198.206Z" transform="translate(6.143 0)"/><path class="c" d="M-69.825,1198.206h-3.113a3.139,3.139,0,0,1-3.138-3.138q-.909-21.6,0-44.885a3.139,3.139,0,0,1,3.138-3.138h3.113a3.137,3.137,0,0,1,3.136,3.138c.214,15.841.286,30.866,0,44.885A3.138,3.138,0,0,1-69.825,1198.206Z" transform="translate(12.56 0)"/><path class="c" d="M-66.907,1153.876v-3.111a3.139,3.139,0,0,1,3.138-3.138c14.4-.19,1.961-.168,17.464,0a3.137,3.137,0,0,1,3.136,3.138v3.111a3.137,3.137,0,0,1-3.136,3.138c-15.547-.008-3.255.1-17.464,0A3.138,3.138,0,0,1-66.907,1153.876Z" transform="translate(19.003 0.3)"/><path class="c" d="M-50,1153.876v-3.111a3.139,3.139,0,0,1,3.138-3.138c14.4-.19,1.961-.168,17.464,0a3.137,3.137,0,0,1,3.136,3.138v3.111a3.137,3.137,0,0,1-3.136,3.138c-15.547-.008-3.255.1-17.464,0A3.138,3.138,0,0,1-50,1153.876Z" transform="translate(30.334 0.3)"/><path class="c" d="M-66.907,1173.5v-3.111a3.139,3.139,0,0,1,3.138-3.138c14.4-.19,1.961-.169,17.464,0a3.137,3.137,0,0,1,3.136,3.138v3.111a3.137,3.137,0,0,1-3.136,3.138c-15.547-.006-3.255.1-17.464,0A3.138,3.138,0,0,1-66.907,1173.5Z" transform="translate(19.003 13.447)"/><path class="c" d="M-50,1173.5v-3.111a3.139,3.139,0,0,1,3.138-3.138c14.4-.19,1.961-.169,17.464,0a3.137,3.137,0,0,1,3.136,3.138v3.111a3.137,3.137,0,0,1-3.136,3.138c-15.547-.006-3.255.1-17.464,0A3.138,3.138,0,0,1-50,1173.5Z" transform="translate(30.334 13.447)"/><path class="c" d="M-38.683,1176.251h3.113a3.138,3.138,0,0,1,3.138,3.136c.19,14.4.167,1.961,0,17.464a3.14,3.14,0,0,1-3.138,3.138h-3.113a3.14,3.14,0,0,1-3.138-3.138c.008-15.547-.1-3.253,0-17.464A3.138,3.138,0,0,1-38.683,1176.251Z" transform="translate(35.783 19.57)"/><path class="c" d="M-38.683,1193.161h3.113a3.138,3.138,0,0,1,3.138,3.136c.19,14.4.167,1.961,0,17.464a3.138,3.138,0,0,1-3.138,3.136h-3.113a3.138,3.138,0,0,1-3.138-3.136c.008-15.547-.1-3.255,0-17.464A3.138,3.138,0,0,1-38.683,1193.161Z" transform="translate(35.783 30.901)"/><path class="c" d="M-48.492,1176.251h3.111a3.137,3.137,0,0,1,3.138,3.136c.19,14.4.167,1.961,0,17.464a3.138,3.138,0,0,1-3.138,3.138h-3.111a3.138,3.138,0,0,1-3.138-3.138c.007-15.547-.1-3.253,0-17.464A3.137,3.137,0,0,1-48.492,1176.251Z" transform="translate(29.21 19.57)"/><path class="c" d="M-48.492,1193.161h3.111a3.137,3.137,0,0,1,3.138,3.136c.19,14.4.167,1.961,0,17.464a3.137,3.137,0,0,1-3.138,3.136h-3.111a3.137,3.137,0,0,1-3.138-3.136c.007-15.547-.1-3.255,0-17.464A3.137,3.137,0,0,1-48.492,1193.161Z" transform="translate(29.21 30.901)"/><path class="c" d="M-58.3,1176.251h3.113a3.137,3.137,0,0,1,3.136,3.136c.19,14.4.169,1.961,0,17.464a3.138,3.138,0,0,1-3.136,3.138H-58.3a3.138,3.138,0,0,1-3.138-3.138c.008-15.547-.1-3.253,0-17.464A3.137,3.137,0,0,1-58.3,1176.251Z" transform="translate(22.636 19.57)"/><path class="c" d="M-58.3,1193.161h3.113a3.137,3.137,0,0,1,3.136,3.136c.19,14.4.169,1.961,0,17.464a3.137,3.137,0,0,1-3.136,3.136H-58.3a3.137,3.137,0,0,1-3.138-3.136c.008-15.547-.1-3.255,0-17.464A3.137,3.137,0,0,1-58.3,1193.161Z" transform="translate(22.636 30.901)"/><path class="c" d="M-66.907,1164.4v-3.112a3.139,3.139,0,0,1,3.138-3.138q21.6-.909,44.885,0a3.137,3.137,0,0,1,3.138,3.138v3.112a3.137,3.137,0,0,1-3.138,3.138c-15.839.214-30.866.286-44.885,0A3.138,3.138,0,0,1-66.907,1164.4Z" transform="translate(19.003 7.142)"/><path class="c" d="M-95.267,1187.863v-3.111a3.137,3.137,0,0,1,3.138-3.138c14.4-.19,1.959-.167,17.462,0a3.137,3.137,0,0,1,3.138,3.138v3.111A3.138,3.138,0,0,1-74.667,1191c-15.547-.007-3.253.1-17.462,0A3.138,3.138,0,0,1-95.267,1187.863Z" transform="translate(0 23.073)"/><path class="c" d="M-78.357,1187.863v-3.111a3.137,3.137,0,0,1,3.138-3.138c14.4-.19,1.959-.167,17.462,0a3.137,3.137,0,0,1,3.138,3.138v3.111A3.138,3.138,0,0,1-57.757,1191c-15.547-.007-3.253.1-17.462,0A3.138,3.138,0,0,1-78.357,1187.863Z" transform="translate(11.331 23.073)"/><path class="c" d="M-95.267,1207.486v-3.113a3.138,3.138,0,0,1,3.138-3.138c14.4-.19,1.959-.167,17.462,0a3.138,3.138,0,0,1,3.138,3.138v3.113a3.139,3.139,0,0,1-3.138,3.138c-15.547-.008-3.253.1-17.462,0A3.139,3.139,0,0,1-95.267,1207.486Z" transform="translate(0 36.221)"/><path class="c" d="M-78.357,1207.486v-3.113a3.138,3.138,0,0,1,3.138-3.138c14.4-.19,1.959-.167,17.462,0a3.138,3.138,0,0,1,3.138,3.138v3.113a3.139,3.139,0,0,1-3.138,3.138c-15.547-.008-3.253.1-17.462,0A3.139,3.139,0,0,1-78.357,1207.486Z" transform="translate(11.331 36.221)"/><path class="c" d="M-95.267,1198.386v-3.111a3.137,3.137,0,0,1,3.138-3.138q21.6-.912,44.885,0a3.137,3.137,0,0,1,3.136,3.138v3.111a3.137,3.137,0,0,1-3.136,3.138c-15.841.214-30.866.285-44.885,0A3.138,3.138,0,0,1-95.267,1198.386Z" transform="translate(0 29.915)"/></g></g></svg>